<svg width="32" height="32" viewBox="0 0 32 32" fill="none" xmlns="http://www.w3.org/2000/svg">
  <defs>
    <clipPath id="glass-clip">
      <path d="M8 10C8 9.44772 8.44772 9 9 9H23C23.5523 9 24 9.44772 24 10V11C24 15.4183 20.4183 19 16 19C11.5817 19 8 15.4183 8 11V10Z" />
    </clipPath>
    <linearGradient id="waveGradient" x1="0%" y1="0%" x2="0%" y2="100%">
      <stop offset="0%" style="stop-color:rgb(245 158 11);stop-opacity:0.5" />
      <stop offset="100%" style="stop-color:rgb(147 51 234);stop-opacity:0.7" />
    </linearGradient>
  </defs>

  <!-- Glass outline -->
  <path
    d="M8 10C8 9.44772 8.44772 9 9 9H23C23.5523 9 24 9.44772 24 10V11C24 15.4183 20.4183 19 16 19C11.5817 19 8 15.4183 8 11V10Z"
    stroke="#374151"
    stroke-width="2"
    stroke-linecap="round"
  />
  
  <!-- Glass stem -->
  <path
    d="M16 19V26"
    stroke="#374151"
    stroke-width="2"
    stroke-linecap="round"
  />
  
  <!-- Glass base -->
  <path
    d="M12 26H20"
    stroke="#374151"
    stroke-width="2"
    stroke-linecap="round"
  />
  
  <!-- Drink smile -->
  <path
    d="M12 13C12 13 13.5 15 16 15C18.5 15 20 13 20 13"
    stroke="#374151"
    stroke-width="1.5"
    stroke-linecap="round"
  />

  <!-- Bubbles -->
  <circle cx="14" cy="6" r="1" fill="#374151" />
  <circle cx="18" cy="5" r="1.5" fill="#374151" />
  <circle cx="11" cy="4" r="1" fill="#374151" />
</svg>